# xmcd
#
# Track frame offsets: 
#        150
#        19139
#        38458
#        46906
#        61632
#        82775
#        96696
#        115484
#
# Disc length: 1804 seconds
#
# Revision: 0
# Processed by: cddbd v1.5.2PL0 Copyright (c) Steve Scherf et al.
# Submitted via: ExactAudioCopy v0.95b3
#
DISCID=59070a08
DTITLE=Alan Parsons Project  - The Complete Audio Guide To The Alan Pa
DTITLE=rsons Project - Disc 4
DYEAR=1900
DGENRE=
TTITLE0=I Wouldn't Want To Be Like You
TTITLE1=Breakdown
TTITLE2=In The Lap Of The Gods (excerpt)
TTITLE3=Pyramania
TTITLE4=What Goes Up
TTITLE5=Lucifer (excerpt)
TTITLE6=You Lie Down With Dogs
TTITLE7=Damned If I Do
EXTD=
EXTT0=
EXTT1=
EXTT2=
EXTT3=
EXTT4=
EXTT5=
EXTT6=
EXTT7=
PLAYORDER=
